<svg width="21" height="21" viewBox="0 0 21 21" fill="none" xmlns="http://www.w3.org/2000/svg">
<path d="M11.9312 1.74278C11.4706 0.821569 11.2403 0.360962 10.9286 0.213153C10.6574 0.0845265 10.3428 0.0845263 10.0716 0.213153C9.75992 0.360961 9.52962 0.821567 9.06901 1.74278L7.33609 5.20862C7.19387 5.49305 7.12276 5.63527 7.01873 5.74416C6.92664 5.84055 6.81621 5.91755 6.69393 5.97064C6.55579 6.03061 6.39776 6.04817 6.0817 6.08329L2.32629 6.50056C1.22218 6.62324 0.670126 6.68458 0.420638 6.93912C0.203826 7.16032 0.101756 7.46951 0.144258 7.77632C0.193165 8.12937 0.600197 8.50732 1.41426 9.26324L4.29299 11.9363C4.57087 12.1944 4.70981 12.3234 4.7901 12.4797C4.86108 12.6179 4.89888 12.7707 4.90051 12.9261C4.90235 13.1018 4.83958 13.2807 4.71403 13.6386L3.37346 17.4592C2.96448 18.6248 2.75998 19.2076 2.89578 19.5535C3.01357 19.8535 3.26876 20.0784 3.58122 20.1575C3.94146 20.2487 4.49389 19.9724 5.59876 19.42L9.78455 17.3271C10.0469 17.1959 10.1781 17.1303 10.3157 17.1045C10.4376 17.0817 10.5626 17.0817 10.6845 17.1045C10.8221 17.1303 10.9533 17.1959 11.2156 17.3271L15.4014 19.42C16.5063 19.9724 17.0587 20.2486 17.419 20.1575C17.7314 20.0784 17.9866 19.8535 18.1044 19.5535C18.2402 19.2076 18.0357 18.6248 17.6267 17.4592L16.2862 13.6386C16.1606 13.2807 16.0978 13.1018 16.0997 12.9261C16.1013 12.7707 16.1391 12.6179 16.2101 12.4797C16.2904 12.3234 16.4293 12.1944 16.7072 11.9363L19.5859 9.26324C20.4 8.50732 20.807 8.12937 20.8559 7.77632C20.8984 7.46951 20.7964 7.16032 20.5795 6.93912C20.3301 6.68458 19.778 6.62324 18.6739 6.50056L14.9185 6.08329C14.6024 6.04817 14.4444 6.03061 14.3063 5.97064C14.184 5.91755 14.0735 5.84055 13.9815 5.74416C13.8774 5.63527 13.8063 5.49305 13.6641 5.20862L11.9312 1.74278Z" fill="#CF9816"/>
</svg>
